<svg xmlns="http://www.w3.org/2000/svg" xml:space="preserve" width="16" height="16" data-version="2">
    <path fill="#476119" d="M6.87 5.65q0 .43.22.75.21.32.52.54.31.23.84.54.55.31.88.55.34.25.57.61.23.37.23.85 0 .54-.26.97-.27.43-.78.68-.51.24-1.21.24-.88 0-1.58-.38-.05-.04-.07-.09-.03-.06-.04-.12l-.14-1.5q-.01-.04.05-.05.07-.01.08.03.16.77.65 1.35.5.59 1.3.59.55 0 .92-.31.38-.3.38-.96 0-.49-.23-.86-.22-.37-.55-.62-.32-.25-.85-.55-.52-.31-.83-.55-.32-.23-.53-.58-.21-.35-.21-.81 0-.55.29-.94.29-.39.76-.58.46-.2.99-.2.66 0 1.3.27.18.06.18.19l.06 1.26q0 .04-.06.05-.06.01-.07-.04-.04-.34-.22-.7-.18-.35-.52-.61-.35-.25-.84-.25-.62 0-.92.36-.31.35-.31.87" paint-order="stroke"/>
    <rect width="4.085" height="7.13" x="-2.042" y="-3.565" fill="none" rx="0" ry="0" transform="translate(8.588 8.315)"/>
</svg>
