<svg xmlns="http://www.w3.org/2000/svg" version="1.1" xmlns:xlink="http://www.w3.org/1999/xlink" width="2000" height="469" viewBox="0 0 2000 469"><svg xml:space="preserve" width="2000" height="469" data-version="2" data-id="lg_wGdQds54z70ZsSxvz6" viewBox="0 0 474 469" x="0" y="0"><rect width="100%" height="100%" fill="transparent"></rect><circle r="151.4" fill="none" stroke="#476119" transform="translate(236.92 205.28)scale(1.3229)"></circle><rect width="350.19" height="131.08" x="-175.1" y="-65.54" fill="#fff" rx="0" ry="0" transform="translate(237 358.36)scale(1.3229)"></rect><path fill="#476119" d="M44.836 350.256q0 4.09 2.04 7.14 2.05 3.04 4.99 5.19 2.94 2.16 7.98 5.1 5.25 2.94 8.45 5.3 3.21 2.36 5.41 5.83 2.21 3.46 2.21 8.08 0 5.15-2.52 9.24-2.52 4.1-7.41 6.46-4.88 2.36-11.6 2.36-8.4 0-15.01-3.67-.53-.32-.74-.84-.21-.53-.31-1.16l-1.37-14.28q-.1-.42.53-.52.63-.11.73.31 1.47 7.35 6.2 12.92 4.72 5.56 12.39 5.56 5.25 0 8.82-2.89 3.57-2.88 3.57-9.18 0-4.73-2.16-8.25-2.15-3.51-5.25-5.88-3.09-2.36-8.13-5.3-4.94-2.94-7.93-5.2-2.99-2.25-5.04-5.56-2.05-3.31-2.05-7.72 0-5.25 2.78-8.98 2.79-3.72 7.25-5.56 4.46-1.84 9.5-1.84 6.3 0 12.39 2.52 1.68.63 1.68 1.79l.63 12.07q0 .42-.58.47-.57.06-.68-.36-.42-3.26-2.1-6.67-1.68-3.41-4.99-5.83-3.3-2.41-8.03-2.41-5.88 0-8.77 3.41-2.88 3.41-2.88 8.35"></path><rect width="39.01" height="68.04" x="-19.5" y="-34.02" fill="none" rx="0" ry="0" transform="translate(56.91 371.44)"></rect><path fill="#476119" d="M102.896 405.166q-5.46 0-9.5-2.68-4.04-2.67-6.25-7.29-2.2-4.62-2.2-10.4 0-6.51 2.62-11.76 2.63-5.25 7.3-8.24t10.66-2.99q7.98 0 12.96 5.3 4.99 5.3 4.99 14.65 0 7.14-2.83 12.49-2.84 5.36-7.56 8.14-4.73 2.78-10.19 2.78m3.15-2.62q5.15 0 8.51-4.31 3.36-4.3 3.36-11.65 0-5.67-1.95-10.82-1.94-5.14-5.46-8.29-3.51-3.15-7.92-3.15-5.15 0-8.61 4.2-3.47 4.2-3.47 11.55 0 5.56 2 10.76 1.99 5.2 5.56 8.45 3.57 3.26 7.98 3.26"></path><rect width="38.53" height="43.36" x="-19.27" y="-21.68" fill="none" rx="0" ry="0" transform="translate(104.71 383.99)"></rect><path fill="#476119" d="M141.116 404.646q-2.94 0-4.51-2.1-1.58-2.1-1.47-6.2l.63-57.64q0-2.52-.74-3.73-.73-1.21-2.52-1.21-1.78 0-5.25 1.58l-.21.1q-.31 0-.52-.52-.21-.53.21-.74l13.54-6.61h.21q.42 0 .79.31.37.32.37.53l-.53 65.94q0 3.15.74 4.62.73 1.47 2.31 1.47 2.62 0 6.61-4.83.11-.11.32-.11.42 0 .78.37.37.37.16.58-3.25 4.2-5.72 6.19-2.47 2-5.2 2"></path><rect width="25.79" height="77.07" x="-12.89" y="-38.53" fill="none" rx="0" ry="0" transform="translate(139.78 366.61)"></rect><path fill="#476119" d="M201.806 395.616q.11-.11.32-.11.31 0 .63.37.31.37.21.58-3.05 4.2-5.62 6.19-2.57 2-5.2 2-5.88 0-5.88-8.3l.21-13.02q-3.46 9.77-9.08 15.75-5.62 5.99-11.92 5.99-3.99 0-6.46-2.79-2.46-2.78-2.46-8.87 0-7.24 3.51-14.65 3.52-7.4 9.19-12.18 5.67-4.77 11.55-4.77 2.21 0 4.36.73 2.15.74 3.83 2.21 1.68-1.68 2-3.68.1-.21.78-.21.69 0 .58.21l-.21 33.29q-.1 6.09 2.94 6.09 2.63 0 6.72-4.83m-32.97 4.3q4.31 0 8.3-4.15 3.99-4.14 6.45-10.23 2.47-6.09 2.47-11.45 0-3.88-2.26-6.25-2.25-2.36-5.93-2.36-4.2 0-7.77 3.05-3.57 3.04-5.67 8.4-2.1 5.35-2.1 11.97 0 5.67 1.63 8.34 1.63 2.68 4.88 2.68"></path><rect width="46.47" height="44.21" x="-23.23" y="-22.11" fill="none" rx="0" ry="0" transform="translate(180.29 383.46)"></rect><path fill="#476119" d="M230.266 362.116q2.41 0 4.67 1.58 2.26 1.57 2.26 3.57 0 1.47-1.05 2.46-1.05 1-2.42 1-1.15 0-1.89-.42-.73-.42-1.57-1.15-.53-.53-1.11-.9-.57-.36-1.31-.36-2.41 0-4.72 5.98-2.31 5.99-3.84 14.33-1.52 8.35-1.62 14.76 0 .73-.9 1.15-.89.42-2.46.42-1.58 0-2.1-.16-.53-.15-.63-.47 0-.42.1-2.36.11-1.94.11-5.62l.21-19.42q0-10.19-3.99-10.19-3.15 0-6.72 3.78l-.21.11q-.32 0-.58-.32-.26-.31-.16-.52 2.63-3.36 5.72-5.25 3.1-1.89 5.83-1.89 2.94 0 4.46 2.94 1.53 2.94 1.42 11.13v12.18q1.58-11.03 4.83-18.69 3.26-7.67 7.67-7.67"></path><rect width="36.92" height="42.42" x="-18.46" y="-21.21" fill="none" rx="0" ry="0" transform="translate(219.24 383.83)"></rect><path fill="#476119" d="M254.936 404.856q-4.62 0-8.19-2-3.57-1.99-3.57-4.72 0-1.37.89-2.05.9-.68 2.16-.68 1.15 0 1.99.68.84.68 1.89 2.05 1.79 2.2 3.41 3.3 1.63 1.11 4.47 1.11 3.04 0 4.62-1.58 1.57-1.57 1.57-4.51-.1-3.89-2.57-6.51-2.47-2.63-7.3-5.67-4.83-3.05-7.3-5.67-2.46-2.63-2.46-6.41 0-4.51 4.09-7.3 4.1-2.78 9.24-2.78 4.2 0 7.3 1.52 3.1 1.53 3.1 3.84 0 1.26-.84 1.99-.84.74-2.1.74-1.37 0-2.26-.58-.89-.58-2.26-1.94-1.57-1.58-3.04-2.42-1.47-.84-3.78-.84-2.31 0-3.63 1.05-1.31 1.05-1.31 3.26 0 3.04 2.36 5.51 2.37 2.47 6.99 5.62 5.25 3.67 7.87 6.4 2.63 2.73 2.63 6.62 0 2.94-1.74 5.72-1.73 2.78-4.93 4.51-3.2 1.74-7.3 1.74"></path><rect width="25.73" height="42.74" x="-12.87" y="-21.37" fill="none" rx="0" ry="0" transform="translate(256.54 383.99)"></rect><path fill="#476119" d="M295.046 405.066q-6.09 0-10.24-3.15-4.14-3.15-6.14-7.93-1.99-4.78-1.99-9.82 0-6.82 2.94-11.86 2.94-5.04 7.71-7.77 4.78-2.73 9.93-2.73 4.51 0 7.87 1.83 3.36 1.84 3.36 4.89 0 1.26-.79 2.04-.78.79-2.36.79-1.78 0-2.83-.84t-2-2.52q-2.31-3.88-6.93-3.88-5.46 0-8.03 4.67-2.57 4.67-2.57 11.81 0 8.72 4.2 14.75 4.2 6.04 12.07 6.04 4.94 0 9.66-2.94h.11q.31 0 .68.37.37.37.16.68-3.36 2.84-7.2 4.2-3.83 1.37-7.61 1.37"></path><rect width="33.32" height="43.26" x="-16.66" y="-21.63" fill="none" rx="0" ry="0" transform="translate(293.84 383.94)"></rect><path fill="#476119" d="M359.306 395.616q.11-.11.32-.11.31 0 .63.37.31.37.21.58-3.05 4.2-5.62 6.19-2.57 2-5.2 2-5.88 0-5.88-8.3l.21-13.02q-3.46 9.77-9.08 15.75-5.62 5.99-11.92 5.99-3.99 0-6.46-2.79-2.46-2.78-2.46-8.87 0-7.24 3.51-14.65 3.52-7.4 9.19-12.18 5.67-4.77 11.55-4.77 2.21 0 4.36.73 2.15.74 3.83 2.21 1.68-1.68 2-3.68.1-.21.78-.21.69 0 .58.21l-.21 33.29q-.1 6.09 2.94 6.09 2.63 0 6.72-4.83m-32.97 4.3q4.31 0 8.3-4.15 3.99-4.14 6.45-10.23 2.47-6.09 2.47-11.45 0-3.88-2.26-6.25-2.25-2.36-5.93-2.36-4.2 0-7.77 3.05-3.57 3.04-5.67 8.4-2.1 5.35-2.1 11.97 0 5.67 1.63 8.34 1.63 2.68 4.88 2.68"></path><rect width="46.47" height="44.21" x="-23.23" y="-22.11" fill="none" rx="0" ry="0" transform="translate(337.79 383.46)"></rect><path fill="#476119" d="M378.316 403.806q-2.52 0-5.67-.32v18.9q0 3.68 1.05 5.09 1.05 1.42 3.88 1.42.74 0 2.84-.21h.1q.32 0 .42.53.11.52-.31.63l-19.32 2.73q-.42.1-.58-.53-.16-.63.26-.73 2.52-.42 3.62-1.11 1.11-.68 1.47-2.15.37-1.47.37-4.93l.11-49.88q-.53.32-4.52 3.57l-.21.11q-.42 0-.73-.42-.32-.42-.11-.63 1.79-1.68 5.57-4.83v-7.88q0-.21 1.36-1.47 1.37-1.26 2.42-2.73 1.05-1.47 1.05-3.36 0-.42.63-.42t.63.42v11.34q7.77-4.51 14.8-4.51 6.62 0 10.19 3.99 3.57 3.99 3.57 11.65 0 7.14-2.84 13.02-2.83 5.88-8.03 9.29-5.2 3.42-12.02 3.42m4.93-37.59q-5.14 0-10.6 3.04v29.82q4.51 1.79 8.71 1.79 7.67 0 10.87-4.94 3.2-4.93 3.2-13.75 0-15.96-12.18-15.96"></path><rect width="40.58" height="77.44" x="-20.29" y="-38.72" fill="none" rx="0" ry="0" transform="translate(381.42 394.4)"></rect><path fill="#476119" d="M441.316 397.926q.31 0 .68.31.37.32.16.63-6.93 6.09-15.44 6.09-5.88 0-10.08-2.73t-6.3-7.24q-2.1-4.52-2.1-9.66 0-6.09 2.84-11.5 2.83-5.41 7.82-8.72 4.99-3.3 11.29-3.3 4.2 0 6.56 1.52 2.36 1.52 2.36 4.15-.1 4.62-7.14 8.45-7.03 3.83-17.32 5.3.21 9.14 4.25 14.65t11.5 5.51q2.73 0 5.56-.84 2.84-.84 5.15-2.62Zm-15.65-33.29q-5.35 0-8.08 4.2-2.73 4.2-2.94 10.92 16.9-2.83 16.9-10.81 0-2.1-1.57-3.21-1.58-1.1-4.31-1.1"></path><rect width="34.06" height="43.15" x="-17.03" y="-21.57" fill="none" rx="0" ry="0" transform="translate(425.77 383.88)"></rect><path fill="#476119" d="M12.836 459.586q1.76 0 1.76-1.08 0-.81-1.59-1.27-.3-.09-.72-.21-.79-.21-1.06-.32-.69-.26-1.16-.77-.48-.51-.48-1.2 0-.9.85-1.5.86-.59 2.07-.59 1.18 0 2.21.43.51.21.83.59.31.37.31.78 0 .4-.32.65-.33.24-.67.24-.35 0-.46-.07-.12-.07-.12-.31 0-1.51-1.6-1.51-.66 0-1.16.3-.49.29-.49.76 0 .73 1.53 1.16.25.07.59.16.34.09.63.18t.61.21q.31.12.67.31.35.2.57.42.5.52.5 1.25t-.49 1.26q-.97 1.04-2.81 1.04-1.2 0-2.2-.39-.52-.2-.83-.56-.31-.36-.31-.77 0-.4.25-.63.26-.22.59-.22.33 0 .56.2.23.21.23.51 0 .3-.06.64.83.31 1.77.31"></path><rect width="6.64" height="7.85" x="-3.32" y="-3.92" fill="none" rx="0" ry="0" transform="translate(13.32 457.07)"></rect><path fill="#476119" d="M23.806 456.916q0 1.07.18 1.51.17.44.39.63.45.39 1.51.39t1.55-.55q.49-.54.49-1.81v-2.64q0-.58-.57-.62-.45-.02-.5-.1-.05-.07-.05-.17 0-.39.46-.59.46-.2 1.09-.2.63 0 .85.17.22.17.22.81l.01 5q0 .53.56.57.4.03.49.08.08.06.08.28 0 .21-.26.39-.46.31-1.19.31-.74 0-.92-.22-.17-.22-.17-1.03-.95 1.38-2.9 1.38-1.53 0-2.18-.83-.64-.83-.64-2.55v-2.68q0-.58-.56-.62-.46-.02-.51-.1-.04-.07-.04-.17 0-.39.45-.59.45-.2 1.08-.2.63 0 .86.17.22.17.22.81Z"></path><rect width="9.37" height="7.74" x="-4.68" y="-3.87" fill="none" rx="0" ry="0" transform="translate(26.38 457.14)"></rect><path fill="#476119" d="M39.266 459.586q1.75 0 1.75-1.08 0-.81-1.58-1.27-.3-.09-.72-.21-.79-.21-1.06-.32-.69-.26-1.17-.77-.47-.51-.47-1.2 0-.9.85-1.5.86-.59 2.07-.59 1.18 0 2.21.43.51.21.82.59.32.37.32.78 0 .4-.32.65-.33.24-.68.24-.34 0-.46-.07-.11-.07-.11-.31 0-1.51-1.6-1.51-.67 0-1.16.3-.49.29-.49.76 0 .73 1.53 1.16.24.07.59.16.34.09.63.18t.6.21q.32.12.67.31.35.2.57.42.51.52.51 1.25t-.49 1.26q-.98 1.04-2.81 1.04-1.2 0-2.21-.39-.51-.2-.83-.56-.31-.36-.31-.77 0-.4.26-.63.26-.22.59-.22.32 0 .55.2.23.21.23.51 0 .3-.05.64.83.31 1.77.31"></path><rect width="6.65" height="7.85" x="-3.33" y="-3.92" fill="none" rx="0" ry="0" transform="translate(39.74 457.07)"></rect><path fill="#476119" d="m48.686 453.826-.47.01q-.29 0-.42-.06-.14-.05-.14-.23 0-.17.16-.32.15-.14.34-.22.54-.22.65-.37.1-.15.31-.67.53-1.29.88-1.29.18 0 .21.39l.03.59q0 .2-.01.6v.56l1.85.01q.28 0 .47.14.18.13.18.36 0 .23-.18.35-.18.13-.46.13h-1.86l-.01 3.99q0 1.69.85 1.69.23 0 .69-.14.47-.15.61-.15.32 0 .32.37 0 .29-.76.58-.75.29-1.54.29-.8 0-1.25-.62-.45-.62-.45-1.62Z"></path><rect width="5.07" height="9.76" x="-2.54" y="-4.88" fill="none" rx="0" ry="0" transform="translate(50.69 456.06)"></rect><path fill="#476119" d="M59.516 455.346h-.15q-.15 0-.51-.24-.36-.23-.36-.6t.21-.7q.21-.32.55-.53.33-.21.78-.35.81-.26 1.75-.26 1.57 0 2.29.7.71.7.71 2.31v2.31q0 .83.21 1.04.05.06.34.14.8.25.8.39 0 .82-1.68.82-.63 0-.83-.28-.19-.29-.2-1.03-.35.63-1.07 1.03-.72.39-1.54.39-.82 0-1.39-.21-.57-.22-.93-.69-.35-.47-.35-1.02 0-.54.12-.88.13-.33.31-.56.19-.22.52-.4.32-.18.6-.29.28-.1.73-.19.65-.12 1.1-.17.44-.05.46-.06.05-.01.53-.06.49-.05.77-.21 0-1.48-.39-1.94-.36-.39-1.16-.39-.81 0-1.21.41-.4.41-.4 1.3l.01.18q-.33.04-.62.04m3.77 1.1q-.53.2-1.19.27-.67.08-1.06.18-.38.1-.64.25-.59.34-.59 1.18 0 1.34 1.56 1.34 1.35 0 1.71-1.29.21-.73.21-1.93"></path><rect width="7.99" height="7.82" x="-4" y="-3.91" fill="none" rx="0" ry="0" transform="translate(62.64 457.08)"></rect><path fill="#476119" d="M72.176 450.486q0-.34.34-.64.33-.3.72-.3.4 0 .77.24t.37.64q0 .4-.31.67-.32.27-.77.27t-.78-.25q-.34-.25-.34-.63m1.64 9.81-.68.01q-1.02 0-1.26-.32-.11-.14-.11-.34t.16-.27q.15-.08.34-.09.19-.01.35-.12.16-.11.16-.36v-4.21q0-.71-.56-.76-.05-.01-.14-.02-.08-.01-.12-.01-.04 0-.1-.02-.06-.01-.09-.02-.02-.02-.06-.04-.05-.04-.05-.22 0-.19.23-.38.45-.36 1.19-.36.69 0 .81.05.12.06.21.12.16.11.16.41v5.46q0 .45.51.48.5.02.5.4 0 .43-.47.53-.36.08-.98.08"></path><rect width="3.61" height="10.76" x="-1.8" y="-5.38" fill="none" rx="0" ry="0" transform="translate(73.96 455.43)"></rect><path fill="#476119" d="m82.966 460.296-.67.01q-1.02 0-1.27-.32-.11-.14-.11-.34t.16-.27q.16-.08.35-.09.19-.01.35-.12.15-.11.15-.36v-4.46q0-.46-.56-.55-.39-.06-.47-.14-.09-.07-.09-.26 0-.2.28-.35.46-.28 1.16-.28t.9.2q.2.2.2.88 1.07-1.21 2.94-1.21 1.52 0 2.16.83.64.84.64 2.52v2.82q0 .45.5.48.51.02.51.4 0 .42-.49.53-.36.08-.99.08l-.67.01q-1.03 0-1.27-.32-.11-.14-.11-.34t.16-.27q.16-.08.35-.09.19-.01.34-.12.16-.11.16-.36v-2.28q0-1.45-.34-2.12-.37-.76-1.5-.76-1.37 0-1.86.73-.46.68-.46 2.19v2.24q0 .45.5.48.5.02.5.4 0 .43-.47.53-.35.08-.98.08"></path><rect width="9.29" height="7.67" x="-4.64" y="-3.83" fill="none" rx="0" ry="0" transform="translate(85.95 456.97)"></rect><path fill="#476119" d="M96.676 455.346h-.14q-.15 0-.51-.24-.37-.23-.37-.6t.22-.7q.21-.32.54-.53.34-.21.78-.35.82-.26 1.75-.26 1.58 0 2.3.7.71.7.71 2.31l-.01 2.31q0 .83.21 1.04.06.06.35.14.8.25.8.39 0 .82-1.68.82-.64 0-.83-.28-.19-.29-.21-1.03-.35.63-1.07 1.03-.71.39-1.53.39-.83 0-1.4-.21-.57-.22-.92-.69-.36-.47-.36-1.02 0-.54.13-.88.12-.33.31-.56.19-.22.51-.4.33-.18.61-.29.28-.1.72-.19.66-.12 1.11-.17.44-.05.46-.06.04-.01.53-.06.49-.05.77-.21 0-1.48-.4-1.94-.35-.39-1.15-.39-.81 0-1.21.41-.4.41-.4 1.3l.01.18q-.33.04-.63.04m3.78 1.1q-.53.2-1.2.27-.67.08-1.05.18-.38.1-.64.25-.59.34-.59 1.18 0 1.34 1.56 1.34 1.35 0 1.71-1.29.21-.73.21-1.93"></path><rect width="8" height="7.82" x="-4" y="-3.91" fill="none" rx="0" ry="0" transform="translate(99.8 457.08)"></rect><path fill="#476119" d="M114.896 456.916q0-.8-.3-1.54t-.87-1.23q-.57-.49-1.29-.49-.97 0-1.8.76v4.31q.93.73 2 .73 1.07 0 1.66-.7.6-.7.6-1.84m-5.44 3.44q-.3 0-.3-.71v-9.09q0-.71-.57-.77-.05-.01-.14-.01-.08-.01-.12-.02-.04 0-.1-.01-.06-.01-.09-.03-.02-.02-.05-.04-.05-.05-.05-.23 0-.17.24-.37.44-.36 1.18-.36.79 0 .92.09.27.19.27.5v4.32q1.16-1 2.65-1 1.48 0 2.38 1.04.91 1.03.91 2.71 0 1.04-.46 1.97-.46.93-1.28 1.51-.83.58-1.81.58-1.41 0-2.73-.88-.01.01-.21.28-.38.52-.64.52"></path><rect width="8.55" height="11.72" x="-4.28" y="-5.86" fill="none" rx="0" ry="0" transform="translate(112.81 455.08)"></rect><path fill="#476119" d="m124.146 460.296-.68.01q-1.02 0-1.26-.32-.11-.14-.11-.34t.16-.27q.15-.08.34-.09.19-.01.34-.12.16-.11.16-.36v-8.25q0-.71-.56-.77-.06-.01-.14-.01-.09-.01-.13-.02-.04 0-.1-.01-.05-.01-.08-.03-.03-.02-.05-.04-.06-.05-.06-.23 0-.17.24-.37.44-.36 1.18-.36.79 0 .93.09.26.19.26.5v9.5q0 .45.51.48.5.02.5.4 0 .43-.47.53-.36.08-.98.08"></path><rect width="3.62" height="11.59" x="-1.81" y="-5.79" fill="none" rx="0" ry="0" transform="translate(124.29 455.01)"></rect><path fill="#476119" d="m131.766 459.446-.54-.53q-.55-.54-.55-2.29 0-1.76 1.09-2.86 1.09-1.1 2.78-1.1 1.34 0 2.26.87.91.86.91 2.16 0 .64-1 .64h-4.52q.02 1.26.82 2.13.8.87 2.03.87.81 0 1.58-.48.41-.25.52-.25.11 0 .26.11.14.12.14.28 0 .43-.55.79-.55.37-1.21.54-.67.18-1.17.18-1.77 0-2.85-1.06m4.52-3.93q-.02-.9-.47-1.46-.46-.57-1.33-.57-.87 0-1.52.63-.65.62-.69 1.43h1.83q1.21 0 2.18-.03"></path><rect width="7.04" height="7.84" x="-3.52" y="-3.92" fill="none" rx="0" ry="0" transform="translate(134.7 457.09)"></rect><path fill="#476119" d="m150.966 459.446-.54-.53q-.54-.54-.54-2.29 0-1.76 1.09-2.86 1.09-1.1 2.78-1.1 1.34 0 2.25.87.92.86.92 2.16 0 .64-1 .64h-4.52q.01 1.26.82 2.13.8.87 2.03.87.81 0 1.58-.48.4-.25.52-.25.11 0 .25.11.15.12.15.28 0 .43-.55.79-.55.37-1.22.54-.66.18-1.16.18-1.77 0-2.86-1.06m4.52-3.93q-.01-.9-.47-1.46-.45-.57-1.32-.57-.87 0-1.52.63-.66.62-.69 1.43h1.82q1.22 0 2.18-.03"></path><rect width="7.04" height="7.84" x="-3.52" y="-3.92" fill="none" rx="0" ry="0" transform="translate(153.9 457.09)"></rect><path fill="#476119" d="m164.376 460.296-.67.01q-1.02 0-1.26-.32-.11-.14-.11-.34t.15-.27q.16-.08.35-.09.19-.01.35-.12.15-.11.15-.36v-4.46q0-.46-.56-.55-.39-.06-.47-.14-.08-.07-.08-.26 0-.2.27-.35.46-.28 1.16-.28t.9.2q.2.2.2.88 1.07-1.21 2.94-1.21 1.53 0 2.16.83.64.84.64 2.52v2.82q0 .45.5.48.51.02.51.4 0 .42-.49.53-.36.08-.99.08l-.67.01q-1.02 0-1.27-.32-.11-.14-.11-.34t.16-.27q.16-.08.35-.09.19-.01.35-.12.15-.11.15-.36v-2.28q0-1.45-.33-2.12-.38-.76-1.51-.76-1.37 0-1.86.73-.46.68-.46 2.19v2.24q0 .45.5.48.51.02.51.4 0 .43-.48.53-.34.08-.98.08"></path><rect width="9.28" height="7.67" x="-4.64" y="-3.83" fill="none" rx="0" ry="0" transform="translate(167.37 456.97)"></rect><path fill="#476119" d="m177.566 459.446-.54-.53q-.54-.54-.54-2.29 0-1.76 1.09-2.86 1.09-1.1 2.78-1.1 1.33 0 2.25.87.92.86.92 2.16 0 .64-1 .64h-4.52q.01 1.26.82 2.13.8.87 2.03.87.81 0 1.58-.48.4-.25.52-.25.11 0 .25.11.15.12.15.28 0 .43-.55.79-.55.37-1.22.54-.66.18-1.16.18-1.78 0-2.86-1.06m4.52-3.93q-.01-.9-.47-1.46-.45-.57-1.32-.57-.87 0-1.52.63-.66.62-.7 1.43h1.83q1.22 0 2.18-.03"></path><rect width="7.04" height="7.84" x="-3.52" y="-3.92" fill="none" rx="0" ry="0" transform="translate(180.5 457.09)"></rect><path fill="#476119" d="m191.006 460.296-.68.01q-1.02 0-1.26-.32-.11-.14-.11-.34t.15-.27q.16-.08.35-.09.19-.01.35-.12.16-.11.16-.36v-3.86q0-.7-.17-.86-.17-.17-.28-.21-.12-.05-.36-.12-.24-.07-.39-.14-.16-.07-.16-.21 0-.63 1.68-.63.72 0 .91.25.19.25.19 1.14.26-.68.88-1.06.61-.38 1.25-.38.65 0 1.07.28.42.27.42.7 0 .42-.28.68-.27.25-.67.25t-.68-.21q-.29-.21-.37-.55-.21-.03-.34-.03-1.22 0-1.22 2.81v2.15q0 .45.5.48.51.02.51.4 0 .43-.47.53-.36.08-.98.08"></path><rect width="6.4" height="7.58" x="-3.2" y="-3.79" fill="none" rx="0" ry="0" transform="translate(192.3 457.02)"></rect><path fill="#476119" d="M207.176 455.436q0 .71-.54 1.25-1.05 1.05-3 1.05-.39 0-.82-.07-.43-.07-.54-.09v-.01q-.59.5-.59.88 0 .34.34.46.47.17 1.33.19.85.01 1.32.02.48.01 1.03.05.56.04.98.16.42.11.79.3.75.39.75 1.32 0 .71-.37 1.25-.36.54-.98.85-1.23.63-2.92.63-1.47 0-2.59-.4-.6-.22-.95-.65-.35-.43-.35-1.02 0-1.11 1.11-1.71-.29-.29-.4-.55-.1-.25-.1-.6 0-.34.06-.53t.19-.34q.18-.21.64-.56-.73-.37-1.12-.82-.38-.46-.38-1.16t.32-1.21q.32-.52.86-.82 1.07-.62 2.4-.62.38 0 1.4.19 1.03.19 1.16.19.69 0 .81-.69 1 0 1 .79 0 .39-.23.61-.23.22-.53.22-.3 0-.65-.03.23.2.4.61t.17.86m-3.5-2.08h-.42q-.42 0-1.01.49-.59.5-.59 1.3t.61 1.32q.6.52 1.48.52.87 0 1.41-.48.55-.48.55-1.26 0-.77-.59-1.33t-1.44-.56m.14 9.41q1.2 0 1.82-.26.63-.25.87-.58.24-.33.24-.8 0-.96-3.73-.96-1.06 0-1.06-.02-.59.6-.59 1.15 0 1.47 2.45 1.47"></path><rect width="8.16" height="11.3" x="-4.08" y="-5.65" fill="none" rx="0" ry="0" transform="translate(204.65 458.53)"></rect><path fill="#476119" d="M217.306 458.696q1.97-4.18 1.97-4.42 0-.23-.17-.33-.17-.09-.37-.1-.55-.06-.55-.32 0-.72 1.68-.72h.31q.75 0 1.08.25.32.24.32.45 0 .21-.23.26-.49.08-.73.27-.24.18-.46.67-.23.49-.76 1.68t-.89 1.94l-1.68 3.45q-.27.57-.68.94-.42.37-.99.37-.57 0-1-.29-.42-.28-.42-.73 0-.45.27-.71.27-.26.67-.26.41 0 .73.2.33.2.34.5.63-.99.84-1.55-.33-.9-1.5-3.17t-1.29-2.54q-.13-.26-.22-.36-.09-.1-.23-.17t-.23-.1q-.09-.03-.31-.09-.21-.05-.34-.09-.12-.04-.12-.24 0-.68 1.84-.68 1.13 0 1.45.12.62.22.62.58 0 .24-.46.33-.47.09-.47.34 0 .03.27.74.9 2.33 1.71 3.78"></path><rect width="9.23" height="10.28" x="-4.62" y="-5.14" fill="none" rx="0" ry="0" transform="translate(217.46 458.45)"></rect><path fill="#476119" d="m233.866 460.106-.06-.03q-.07-.04-.13-.16-.06-.11-.06-.29t.16-.25q.16-.08.35-.09.19-.01.35-.12.15-.11.15-.36v-5.02h-.54q-.21 0-.34-.14-.14-.15-.14-.42 0-.28.13-.36.13-.09.49-.09h.4v-1.15q0-1.31.8-2.02.79-.71 2.16-.71 1.13 0 1.63.45.29.25.29.65 0 .95-.96.95-.84 0-.84-.95v-.11q-.3-.12-.6-.12-1.34 0-1.34 1.39 0 .92.35 1.62h1.13q.56 0 .56.33 0 .27-.17.46-.16.2-.37.2h-1.15v5.04q0 .45.5.48.5.02.5.4 0 .43-.57.53-.43.08-.84.08h-.59q-.18 0-.3-.01-.13 0-.36-.01-.22-.02-.34-.06-.11-.04-.25-.11"></path><rect width="5.9" height="11.4" x="-2.95" y="-5.7" fill="none" rx="0" ry="0" transform="translate(237.06 455.1)"></rect><path fill="#476119" d="M247.386 460.486q-1.77 0-2.85-1.11-1.07-1.11-1.07-2.82 0-1.14.57-2.03.57-.9 1.54-1.37.97-.47 2.17-.47 1.72 0 2.83 1.07 1.12 1.07 1.12 2.77 0 1.17-.57 2.08-.58.91-1.55 1.4-.98.48-2.19.48m.32-.86h.58q.58 0 1.24-.79.65-.79.65-2.1 0-1.32-.75-2.27t-1.93-.95q-1.17 0-1.81.8-.63.81-.63 2.11 0 1.31.74 2.25.74.95 1.91.95"></path><rect width="8.23" height="7.8" x="-4.12" y="-3.9" fill="none" rx="0" ry="0" transform="translate(248.08 457.09)"></rect><path fill="#476119" d="m258.966 460.296-.68.01q-1.02 0-1.26-.32-.11-.14-.11-.34t.15-.27q.16-.08.35-.09.19-.01.35-.12.16-.11.16-.36v-3.86q0-.7-.17-.86-.17-.17-.28-.21-.12-.05-.36-.12-.24-.07-.39-.14-.16-.07-.16-.21 0-.63 1.68-.63.72 0 .91.25.19.25.19 1.14.26-.68.88-1.06.61-.38 1.25-.38.65 0 1.07.28.42.27.42.7 0 .42-.28.68-.27.25-.67.25t-.68-.21q-.29-.21-.37-.55-.21-.03-.34-.03-1.22 0-1.22 2.81v2.15q0 .45.5.48.51.02.51.4 0 .43-.47.53-.36.08-.98.08"></path><rect width="6.4" height="7.58" x="-3.2" y="-3.79" fill="none" rx="0" ry="0" transform="translate(260.27 457.02)"></rect><path fill="#476119" d="M276.486 455.346h-.15q-.14 0-.51-.24-.36-.23-.36-.6t.21-.7q.21-.32.55-.53.33-.21.78-.35.81-.26 1.75-.26 1.58 0 2.29.7.72.7.72 2.31l-.01 2.31q0 .83.21 1.04.05.06.34.14.8.25.8.39 0 .82-1.68.82-.63 0-.82-.28-.19-.29-.21-1.03-.35.63-1.07 1.03-.72.39-1.54.39-.82 0-1.39-.21-.57-.22-.93-.69-.35-.47-.35-1.02 0-.54.12-.88.13-.33.32-.56.18-.22.51-.4.32-.18.6-.29.28-.1.73-.19.66-.12 1.1-.17.45-.05.46-.06.05-.01.54-.06.49-.05.77-.21 0-1.48-.4-1.94-.35-.39-1.16-.39-.8 0-1.2.41-.41.41-.41 1.3l.01.18q-.33.04-.62.04m3.78 1.1q-.53.2-1.2.27-.67.08-1.05.18-.39.1-.64.25-.6.34-.6 1.18 0 1.34 1.57 1.34 1.35 0 1.71-1.29.21-.73.21-1.93"></path><rect width="7.99" height="7.82" x="-4" y="-3.91" fill="none" rx="0" ry="0" transform="translate(279.61 457.08)"></rect><path fill="#476119" d="M301.866 456.916q0-.8-.3-1.54t-.87-1.23q-.58-.49-1.29-.49-.97 0-1.8.76v4.31q.93.73 2 .73 1.07 0 1.66-.7.6-.7.6-1.84m-5.44 3.44q-.31 0-.31-.71v-9.09q0-.71-.56-.77-.05-.01-.14-.01-.09-.01-.12-.02-.04 0-.1-.01-.06-.01-.09-.03-.03-.02-.05-.04-.05-.05-.05-.23 0-.17.24-.37.44-.36 1.18-.36.79 0 .92.09.27.19.27.5v4.32q1.16-1 2.64-1 1.49 0 2.39 1.04.9 1.03.9 2.71 0 1.04-.45 1.97-.46.93-1.29 1.51-.82.58-1.8.58-1.41 0-2.73-.88-.02.01-.21.28-.38.52-.64.52"></path><rect width="8.54" height="11.72" x="-4.27" y="-5.86" fill="none" rx="0" ry="0" transform="translate(299.78 455.08)"></rect><path fill="#476119" d="m311.126 460.296-.67.01q-1.03 0-1.27-.32-.11-.14-.11-.34t.16-.27q.16-.08.35-.09.19-.01.34-.12.16-.11.16-.36v-3.86q0-.7-.17-.86-.17-.17-.28-.21-.11-.05-.35-.12-.25-.07-.4-.14-.15-.07-.15-.21 0-.63 1.68-.63.71 0 .9.25.19.25.19 1.14.27-.68.88-1.06t1.26-.38q.64 0 1.06.28.42.27.42.7 0 .42-.27.68-.28.25-.68.25-.39 0-.68-.21-.28-.21-.37-.55-.2-.03-.34-.03-1.21 0-1.21 2.81v2.15q0 .45.5.48.5.02.5.4 0 .43-.47.53-.36.08-.98.08"></path><rect width="6.39" height="7.58" x="-3.19" y="-3.79" fill="none" rx="0" ry="0" transform="translate(312.43 457.02)"></rect><path fill="#476119" d="M321.046 450.486q0-.34.33-.64t.73-.3q.39 0 .76.24.38.24.38.64t-.32.67q-.31.27-.76.27-.46 0-.79-.25t-.33-.63m1.63 9.81-.67.01q-1.02 0-1.26-.32-.11-.14-.11-.34t.15-.27q.16-.08.35-.09.19-.01.35-.12.15-.11.15-.36v-4.21q0-.71-.55-.76-.06-.01-.14-.02-.09-.01-.13-.01-.04 0-.09-.02-.06-.01-.09-.02l-.06-.04q-.05-.04-.05-.22 0-.19.23-.38.45-.36 1.19-.36.69 0 .81.05.12.06.2.12.17.11.17.41v5.46q0 .45.5.48.51.02.51.4 0 .43-.47.53-.36.08-.99.08"></path><rect width="3.61" height="10.76" x="-1.8" y="-5.38" fill="none" rx="0" ry="0" transform="translate(322.83 455.43)"></rect><path fill="#476119" d="M336.806 455.436q0 .71-.53 1.25-1.06 1.05-3.01 1.05-.39 0-.81-.07-.43-.07-.54-.09v-.01q-.6.5-.6.88 0 .34.34.46.47.17 1.33.19.85.01 1.32.02.48.01 1.04.05.55.04.97.16.42.11.79.3.75.39.75 1.32 0 .71-.37 1.25-.36.54-.98.85-1.23.63-2.92.63-1.47 0-2.59-.4-.6-.22-.95-.65-.35-.43-.35-1.02 0-1.11 1.11-1.71-.29-.29-.4-.55-.1-.25-.1-.6 0-.34.06-.53t.19-.34q.18-.21.65-.56-.74-.37-1.13-.82-.38-.46-.38-1.16t.32-1.21q.33-.52.86-.82 1.08-.62 2.4-.62.38 0 1.41.19 1.02.19 1.15.19.69 0 .81-.69 1 0 1 .79 0 .39-.23.61-.23.22-.53.22-.3 0-.65-.03.23.2.4.61t.17.86m-3.5-2.08h-.42q-.42 0-1.01.49-.59.5-.59 1.3t.61 1.32q.6.52 1.48.52.87 0 1.41-.48.55-.48.55-1.26 0-.77-.59-1.33t-1.44-.56m.14 9.41q1.2 0 1.83-.26.62-.25.86-.58.24-.33.24-.8 0-.96-3.73-.96-1.05 0-1.05-.02-.6.6-.6 1.15 0 1.47 2.45 1.47"></path><rect width="8.16" height="11.3" x="-4.08" y="-5.65" fill="none" rx="0" ry="0" transform="translate(334.28 458.53)"></rect><path fill="#476119" d="m350.586 460.296-.67.01q-1.02 0-1.26-.32-.11-.14-.11-.34t.15-.27q.16-.08.35-.09.19-.01.35-.12.16-.11.16-.36v-2.28q0-1.43-.34-2.11-.38-.77-1.56-.77-1.25 0-1.75.79-.46.73-.46 2.13v2.24q0 .45.51.48.5.02.5.4 0 .43-.48.53-.34.08-.97.08l-.67.01q-1.03 0-1.27-.32-.11-.14-.11-.34t.16-.27q.15-.08.35-.09.19-.01.34-.12.16-.11.16-.36v-8.51q0-.45-.56-.55-.39-.06-.48-.14-.08-.07-.08-.24 0-.17.17-.31.16-.14.43-.21.46-.13 1.04-.13.97 0 .97.59v4.54q1.06-1.21 2.69-1.21 1.62 0 2.26.83.64.84.64 2.52l-.01 2.82q0 .45.5.48.51.02.51.4 0 .43-.47.53-.36.08-.99.08"></path><rect width="9.2" height="11.59" x="-4.6" y="-5.79" fill="none" rx="0" ry="0" transform="translate(347.95 455.01)"></rect><path fill="#476119" d="m357.796 453.826-.47.01q-.29 0-.42-.06-.14-.05-.14-.23 0-.17.15-.32.16-.14.35-.22.54-.22.65-.37.1-.15.31-.67.53-1.29.88-1.29.18 0 .21.39l.03.59q0 .2-.01.6v.56l1.85.01q.28 0 .47.14.18.13.18.36 0 .23-.18.35-.18.13-.46.13h-1.86l-.01 3.99q0 1.69.85 1.69.23 0 .69-.14.47-.15.61-.15.32 0 .32.37 0 .29-.76.58-.75.29-1.54.29-.8 0-1.25-.62-.45-.62-.45-1.62Z"></path><rect width="5.07" height="9.76" x="-2.54" y="-4.88" fill="none" rx="0" ry="0" transform="translate(359.8 456.06)"></rect><path fill="#476119" d="m368.096 459.446-.54-.53q-.54-.54-.54-2.29 0-1.76 1.09-2.86 1.09-1.1 2.78-1.1 1.33 0 2.25.87.92.86.92 2.16 0 .64-1 .64h-4.52q.01 1.26.82 2.13.8.87 2.03.87.81 0 1.58-.48.4-.25.52-.25.11 0 .25.11.15.12.15.28 0 .43-.55.79-.55.37-1.22.54-.66.18-1.16.18-1.77 0-2.86-1.06m4.52-3.93q-.01-.9-.47-1.46-.45-.57-1.32-.57-.87 0-1.52.63-.66.62-.7 1.43h1.83q1.22 0 2.18-.03"></path><rect width="7.04" height="7.84" x="-3.52" y="-3.92" fill="none" rx="0" ry="0" transform="translate(371.04 457.09)"></rect><path fill="#476119" d="m381.536 460.296-.68.01q-1.02 0-1.26-.32-.11-.14-.11-.34t.15-.27q.16-.08.35-.09.19-.01.35-.12.16-.11.16-.36v-3.86q0-.7-.17-.86-.17-.17-.28-.21-.12-.05-.36-.12-.24-.07-.39-.14-.16-.07-.16-.21 0-.63 1.68-.63.72 0 .91.25.19.25.19 1.14.26-.68.88-1.06.61-.38 1.25-.38.65 0 1.07.28.42.27.42.7 0 .42-.28.68-.27.25-.67.25t-.68-.21q-.29-.21-.37-.55-.21-.03-.34-.03-1.22 0-1.22 2.81v2.15q0 .45.5.48.51.02.51.4 0 .43-.47.53-.36.08-.98.08"></path><rect width="6.4" height="7.58" x="-3.2" y="-3.79" fill="none" rx="0" ry="0" transform="translate(382.84 457.02)"></rect><path fill="#476119" d="m398.156 460.106-.07-.03q-.07-.04-.12-.16-.06-.11-.06-.29t.16-.25q.16-.08.35-.09.18-.01.34-.12.16-.11.16-.36v-5.02h-.54q-.21 0-.35-.14-.14-.15-.14-.42 0-.28.13-.36.14-.09.5-.09h.4v-1.15q0-1.31.79-2.02t2.17-.71q1.35 0 1.76.57.16.23.16.53 0 .95-.97.95-.83 0-.83-.95v-.11q-.3-.12-.61-.12-1.33 0-1.33 1.39 0 .92.35 1.62h3.31q.72 0 .94.17.22.17.22.8v3.17q0 1.07.18 1.51.17.44.39.63.45.39 1.51.39t1.55-.55q.49-.54.49-1.81v-2.64q0-.59-.56-.62-.42-.02-.49-.09-.07-.07-.07-.18 0-.39.46-.59.45-.2 1.08-.2.63 0 .85.17.23.17.23.81l.01 5q0 .53.57.57.4.03.48.08.08.06.08.28 0 .21-.26.39-.46.31-1.2.31-.73 0-.91-.22-.18-.22-.18-1.03-.94 1.38-2.89 1.38-1.53 0-2.18-.83-.64-.83-.64-2.55v-2.68q0-.35-.1-.44l-.12-.12q-.03-.04-.12-.06-.09-.02-.12-.04-.03-.01-.13-.01-.11-.01-.13-.01h-2.25v5.04q0 .24.15.35.16.12.35.12.5.03.5.41 0 .43-.58.53-.42.08-.83.08h-.59q-.18 0-.31-.01-.13 0-.35-.01-.23-.02-.34-.06-.12-.04-.25-.11"></path><rect width="13.75" height="11.61" x="-6.88" y="-5.8" fill="none" rx="0" ry="0" transform="translate(405.26 455.2)"></rect><path fill="#476119" d="m417.456 453.826-.48.01q-.28 0-.42-.06-.13-.05-.13-.23 0-.17.15-.32.15-.14.35-.22.54-.22.64-.37.11-.15.32-.67.52-1.29.88-1.29.18 0 .2.39.03.38.03.59.01.2 0 .6-.01.41-.01.56l1.86.01q.27 0 .46.14.19.13.19.36 0 .23-.18.35-.19.13-.46.13h-1.87l-.01 3.99q0 1.69.86 1.69.23 0 .69-.14.46-.15.6-.15.32 0 .32.37 0 .29-.75.58t-1.55.29q-.79 0-1.24-.62-.45-.62-.45-1.62Z"></path><rect width="5.07" height="9.76" x="-2.54" y="-4.88" fill="none" rx="0" ry="0" transform="translate(419.46 456.06)"></rect><path fill="#476119" d="M429.046 456.916q0 1.07.17 1.51.18.44.4.63.45.39 1.51.39t1.55-.55q.49-.54.49-1.81v-2.64q0-.58-.57-.62-.45-.02-.5-.1-.05-.07-.05-.17 0-.39.46-.59.46-.2 1.09-.2.62 0 .85.17.22.17.22.81l.01 5q0 .53.56.57.4.03.48.08.09.06.09.28 0 .21-.26.39-.46.31-1.2.31-.73 0-.91-.22-.18-.22-.18-1.03-.94 1.38-2.89 1.38-1.54 0-2.18-.83-.64-.83-.64-2.55v-2.68q0-.58-.56-.62-.46-.02-.51-.1-.04-.07-.04-.17 0-.39.45-.59.45-.2 1.08-.2.63 0 .86.17.22.17.22.81Z"></path><rect width="9.37" height="7.74" x="-4.68" y="-3.87" fill="none" rx="0" ry="0" transform="translate(431.62 457.14)"></rect><path fill="#476119" d="m443.266 460.296-.67.01q-1.03 0-1.27-.32-.11-.14-.11-.34t.16-.27q.16-.08.35-.09.19-.01.34-.12.16-.11.16-.36v-3.86q0-.7-.17-.86-.16-.17-.28-.21-.11-.05-.35-.12-.25-.07-.4-.14-.15-.07-.15-.21 0-.63 1.68-.63.71 0 .9.25.19.25.19 1.14.27-.68.88-1.06.62-.38 1.26-.38t1.06.28q.42.27.42.7 0 .42-.27.68-.28.25-.68.25-.39 0-.68-.21-.28-.21-.37-.55-.2-.03-.34-.03-1.21 0-1.21 2.81v2.15q0 .45.5.48.5.02.5.4 0 .43-.47.53-.35.08-.98.08"></path><rect width="6.39" height="7.58" x="-3.19" y="-3.79" fill="none" rx="0" ry="0" transform="translate(444.57 457.02)"></rect><path fill="#476119" d="m453.106 459.446-.54-.53q-.54-.54-.54-2.29 0-1.76 1.09-2.86 1.09-1.1 2.77-1.1 1.34 0 2.26.87.92.86.92 2.16 0 .64-1 .64h-4.53q.02 1.26.82 2.13.81.87 2.03.87.82 0 1.58-.48.41-.25.52-.25.11 0 .26.11.14.12.14.28 0 .43-.55.79-.55.37-1.21.54-.67.18-1.17.18-1.77 0-2.85-1.06m4.52-3.93q-.02-.9-.47-1.46-.45-.57-1.32-.57-.88 0-1.53.63-.65.62-.69 1.43h1.83q1.22 0 2.18-.03"></path><rect width="7.04" height="7.84" x="-3.52" y="-3.92" fill="none" rx="0" ry="0" transform="translate(456.05 457.09)"></rect><path fill="#476119" d="M327.12 132.126h-20.67l4.088 15.623h20.682Zm-5.815-22.256h-20.682l3.752 14.317h20.67Zm-2.088-7.941-4.136-15.833h-20.657l4.136 15.833Zm-20.973 30.197h-20.195l4.088 15.623h20.194Zm-22.268-7.94h20.195l-3.738-14.316H272.24ZM296.46 227.7v-73.538h-8.516V227.7Zm-6.1-125.771-4.155-15.833H266.01l4.158 15.833Zm-42.387 30.197 4.064 15.623h21.898l-4.088-15.623Zm-2.077-7.94h21.883l-3.737-14.316h-21.898Zm16.058-22.257-4.148-15.833h-21.884l4.137 15.833Zm-78.17 169.068h23.228v-32.321h-23.229Zm35.255-86.445a3.752 3.752 0 0 1 1.345-5.256 3.92 3.92 0 0 1 5.18 1.523l15.234 24.786h28.686a4.589 4.589 0 0 0 4.434-5.686 42.961 42.961 0 0 0-16.395-24.759l-49.11-41.844-49.107 41.844a42.95 42.95 0 0 0-16.394 24.76 4.589 4.589 0 0 0 4.43 5.685h84.646Zm1.779-22.348a3.735 3.735 0 0 1 5.311-.1l25.657 24.681a3.758 3.758 0 0 1 .124 5.312 3.856 3.856 0 0 1-2.73 1.153 3.803 3.803 0 0 1-2.606-1.053L220.92 167.52a3.779 3.779 0 0 1-.102-5.314Zm-54.548 34.002a3.76 3.76 0 0 1-2.857-6.19l16.789-19.742a3.752 3.752 0 1 1 5.713 4.866l-16.789 19.745a3.675 3.675 0 0 1-2.856 1.321m25.633-3.808-3.969 6.752a3.76 3.76 0 0 1-3.23 1.83 3.93 3.93 0 0 1-1.93-.528 3.754 3.754 0 0 1-1.278-5.16l3.942-6.757a3.764 3.764 0 0 1 6.465 3.859Zm20.47 8.619a3.793 3.793 0 0 1-4.636-2.655l-6.769-24.781-4.034 7.766a3.79 3.79 0 0 1-3.333 2.03 3.878 3.878 0 0 1-1.728-.426 3.745 3.745 0 0 1-1.603-5.061l12.827-24.679a3.754 3.754 0 1 1 6.665 3.457l-3.682 7.056 8.92 32.648a3.774 3.774 0 0 1-2.628 4.645m84.774 33.17h-8.966a6.905 6.905 0 0 0-6.905 6.905 17.38 17.38 0 0 0-6.89 2.827 30.248 30.248 0 0 0-5.84 5.657 38.647 38.647 0 0 1-3.245 3.465v-39.397H151.538v57.353h23.727v-36.581a4.273 4.273 0 0 1 4.26-4.26h31.745a4.26 4.26 0 0 1 4.26 4.26v36.581h49.76v-7.764c.416-.16.822-.343 1.216-.552a31.256 31.256 0 0 0 8.516-7.572 23.046 23.046 0 0 1 4.202-4.177 9.197 9.197 0 0 1 2.066-1.066v21.131h22.776v-29.902a6.905 6.905 0 0 0-6.92-6.908"></path></svg></svg>